<svg height="471pt" viewBox="-32 0 471 471.509" width="471pt" xmlns="http://www.w3.org/2000/svg"><path d="m187.84375 361.324219-120.277344.664062c-18.617187.089844-33.78125-14.925781-33.871094-33.542969l-1.441406-300.898437c-.019531-4.027344.679688-8.027344 2.066406-11.808594-13.304687 4.914063-22.121093 17.621094-22.066406 31.808594l1.441406 300.898437c.089844 18.617188 15.253907 33.636719 33.871094 33.546876l141.152344-.777344c-.671875-4.875-1.007812-9.785156-1.007812-14.703125 0-1.738281.050781-3.464844.132812-5.1875zm0 0" fill="#d4e1f4"/><g fill="#0635c9"><path d="m15.535156 380.46875c8.726563 8.691406 20.550782 13.554688 32.867188 13.519531h.230468l144.867188-.820312-.066406-12-144.863282.820312c-19.167968.09375-34.78125-15.371093-34.875-34.542969l-1.441406-299.890624c-.089844-19.167969 15.375-34.78125 34.542969-34.875l138.792969-.664063.269531 56.347656c.152344 25.691407 21.007813 46.453125 46.703125 46.484375h.226562l56.351563-.269531.777344 141.199219 12-.066406-.800781-145.6875-.007813-1.722657c-.007813-1.59375-.648437-3.117187-1.78125-4.238281l-103.332031-102.128906c-.984375-.972656-2.273438-1.578125-3.648438-1.707032l-2.152344-.1992182c-.199218-.0195313-.398437-.0195313-.597656-.0273438l-142.863281.6875c-25.792969.125-46.601563 21.132812-46.480469 46.925781l1.441406 299.894531c.027344 12.394532 5.011719 24.261719 13.839844 32.960938zm217.199219-277.621094c-19.15625.058594-34.75-15.386718-34.875-34.539062l-.226563-47.886719 83.160157 82.195313zm0 0"/><path d="m145.226562 221.519531c-3.3125 0-6 2.683594-6 6 0 3.3125 2.6875 6 6 6h20.347657c3.3125 0 6-2.6875 6-6 0-3.316406-2.6875-6-6-6zm0 0"/><path d="m241.722656 176.632812c0-3.3125-2.6875-6-6-6h-168.941406c-3.3125 0-6 2.6875-6 6 0 3.316407 2.6875 6 6 6h168.941406c3.3125 0 6-2.683593 6-6zm0 0"/><path d="m66.78125 221.519531c-3.3125 0-6 2.683594-6 6 0 3.3125 2.6875 6 6 6h52.660156c3.3125 0 6-2.6875 6-6 0-3.316406-2.6875-6-6-6zm0 0"/></g><path d="m264.796875 355.15625 24.914063-23.183594v70.851563c0 3.316406 2.683593 6 6 6 3.3125 0 6-2.683594 6-6v-70.851563l24.910156 23.183594c2.425781 2.257812 6.222656 2.125 8.480468-.300781 2.257813-2.425781 2.121094-6.222657-.304687-8.480469l-35-32.574219c-2.304687-2.144531-5.871094-2.144531-8.175781 0l-35 32.574219c-2.425782 2.257812-2.5625 6.054688-.304688 8.480469 2.257813 2.425781 6.054688 2.558593 8.480469.300781zm0 0" fill="#1ae5be"/><path d="m295.710938 471.507812c47.441406-.046874 89.597656-30.277343 104.867187-75.199218s.265625-94.578125-37.320313-123.53125c-37.589843-28.949219-89.429687-30.78125-128.964843-4.550782-39.535157 26.230469-58.003907 74.707032-45.941407 120.589844 12.898438 48.71875 56.960938 82.660156 107.359376 82.691406zm0-210c54.746093-.046874 99.15625 44.3125 99.171874 99.058594.015626 54.746094-44.367187 99.132813-99.117187 99.117188-54.746094-.015625-99.105469-44.425782-99.054687-99.175782.058593-54.648437 44.347656-98.9375 99-99zm0 0" fill="#1ae5be"/></svg>