<svg xmlns="http://www.w3.org/2000/svg" xmlns:xlink="http://www.w3.org/1999/xlink" width="100" zoomAndPan="magnify" viewBox="0 0 75 74.999997" height="100" preserveAspectRatio="xMidYMid meet" version="1.0"><defs><clipPath id="53e67af4da"><path d="M 20.523438 18.636719 L 54.273438 18.636719 L 54.273438 56.136719 L 20.523438 56.136719 Z M 20.523438 18.636719 " clip-rule="nonzero"/></clipPath><clipPath id="cc0cb109dd"><path d="M 20.527344 18.636719 L 54.273438 18.636719 L 54.273438 56.136719 L 20.527344 56.136719 Z M 20.527344 18.636719 " clip-rule="nonzero"/></clipPath></defs><path fill="#ffffff" d="M 32.554688 44.316406 C 32.695312 41.53125 35 39.3125 37.816406 39.3125 L 40.664062 39.3125 C 43.480469 39.3125 45.789062 41.53125 45.925781 44.316406 Z M 36.269531 33.648438 C 36.269531 32.011719 37.601562 30.675781 39.242188 30.675781 C 40.878906 30.675781 42.214844 32.011719 42.214844 33.648438 C 42.214844 35.289062 40.878906 36.621094 39.242188 36.621094 C 37.601562 36.621094 36.269531 35.289062 36.269531 33.648438 Z M 40.925781 37.804688 C 42.566406 37.136719 43.726562 35.527344 43.726562 33.648438 C 43.726562 31.175781 41.714844 29.164062 39.242188 29.164062 C 36.769531 29.164062 34.757812 31.175781 34.757812 33.648438 C 34.757812 35.527344 35.917969 37.136719 37.558594 37.804688 C 33.9375 37.941406 31.039062 40.929688 31.039062 44.582031 L 31.039062 45.070312 C 31.039062 45.488281 31.375 45.828125 31.792969 45.828125 L 46.6875 45.828125 C 47.105469 45.828125 47.445312 45.488281 47.445312 45.070312 L 47.445312 44.582031 C 47.445312 40.929688 44.542969 37.941406 40.925781 37.804688 " fill-opacity="1" fill-rule="nonzero"/><path fill="#ffffff" d="M 39.242188 30.695312 C 37.613281 30.695312 36.285156 32.019531 36.285156 33.648438 C 36.285156 35.277344 37.613281 36.605469 39.242188 36.605469 C 40.871094 36.605469 42.195312 35.277344 42.195312 33.648438 C 42.195312 32.019531 40.871094 30.695312 39.242188 30.695312 Z M 39.242188 36.640625 C 37.59375 36.640625 36.25 35.296875 36.25 33.648438 C 36.25 32 37.59375 30.660156 39.242188 30.660156 C 40.890625 30.660156 42.230469 32 42.230469 33.648438 C 42.230469 35.296875 40.890625 36.640625 39.242188 36.640625 Z M 32.574219 44.296875 L 45.910156 44.296875 C 45.761719 41.511719 43.460938 39.328125 40.664062 39.328125 L 37.816406 39.328125 C 35.023438 39.328125 32.722656 41.511719 32.574219 44.296875 Z M 45.945312 44.332031 L 32.539062 44.332031 L 32.539062 44.316406 C 32.605469 42.960938 33.1875 41.699219 34.171875 40.757812 C 35.160156 39.8125 36.453125 39.292969 37.816406 39.292969 L 40.664062 39.292969 C 42.027344 39.292969 43.324219 39.8125 44.3125 40.757812 C 45.296875 41.699219 45.875 42.960938 45.945312 44.316406 Z M 39.242188 29.183594 C 36.777344 29.183594 34.773438 31.1875 34.773438 33.648438 C 34.773438 35.476562 35.867188 37.101562 37.5625 37.789062 L 37.636719 37.820312 L 37.558594 37.824219 C 33.910156 37.960938 31.054688 40.929688 31.054688 44.582031 L 31.054688 45.070312 C 31.054688 45.480469 31.386719 45.808594 31.792969 45.808594 L 46.6875 45.808594 C 47.097656 45.808594 47.425781 45.480469 47.425781 45.070312 L 47.425781 44.582031 C 47.425781 40.929688 44.570312 37.960938 40.925781 37.824219 L 40.84375 37.820312 L 40.917969 37.789062 C 42.613281 37.101562 43.707031 35.476562 43.707031 33.648438 C 43.707031 31.1875 41.703125 29.183594 39.242188 29.183594 Z M 46.6875 45.84375 L 31.792969 45.84375 C 31.367188 45.84375 31.019531 45.496094 31.019531 45.070312 L 31.019531 44.582031 C 31.019531 42.8125 31.699219 41.136719 32.929688 39.863281 C 34.136719 38.609375 35.75 37.875 37.480469 37.792969 C 36.691406 37.453125 36.015625 36.902344 35.527344 36.191406 C 35.011719 35.441406 34.738281 34.5625 34.738281 33.648438 C 34.738281 31.167969 36.757812 29.148438 39.242188 29.148438 C 41.722656 29.148438 43.742188 31.167969 43.742188 33.648438 C 43.742188 34.5625 43.46875 35.441406 42.953125 36.191406 C 42.464844 36.902344 41.792969 37.453125 41.003906 37.792969 C 42.730469 37.875 44.34375 38.609375 45.554688 39.863281 C 46.785156 41.136719 47.460938 42.8125 47.460938 44.582031 L 47.460938 45.070312 C 47.460938 45.496094 47.113281 45.84375 46.6875 45.84375 " fill-opacity="1" fill-rule="nonzero"/><g clip-path="url(#53e67af4da)"><path fill="#ffffff" d="M 52.9375 51.621094 C 52.9375 53.390625 51.5 54.828125 49.730469 54.828125 L 28.75 54.828125 C 26.984375 54.828125 25.542969 53.390625 25.542969 51.621094 L 25.542969 49.410156 L 28.277344 49.410156 C 28.695312 49.410156 29.035156 49.074219 29.035156 48.65625 C 29.035156 48.238281 28.695312 47.898438 28.277344 47.898438 L 25.542969 47.898438 L 25.542969 41.972656 L 28.277344 41.972656 C 28.695312 41.972656 29.035156 41.636719 29.035156 41.21875 C 29.035156 40.800781 28.695312 40.460938 28.277344 40.460938 L 25.542969 40.460938 L 25.542969 34.570312 L 28.277344 34.570312 C 28.695312 34.570312 29.035156 34.230469 29.035156 33.8125 C 29.035156 33.394531 28.695312 33.058594 28.277344 33.058594 L 25.542969 33.058594 L 25.542969 27.171875 L 28.277344 27.171875 C 28.695312 27.171875 29.035156 26.832031 29.035156 26.414062 C 29.035156 26 28.695312 25.660156 28.277344 25.660156 L 25.542969 25.660156 L 25.542969 23.371094 C 25.542969 21.601562 26.984375 20.164062 28.75 20.164062 L 49.730469 20.164062 C 51.5 20.164062 52.9375 21.601562 52.9375 23.371094 Z M 49.730469 18.652344 L 28.75 18.652344 C 26.148438 18.652344 24.03125 20.769531 24.03125 23.371094 L 24.03125 25.660156 L 21.296875 25.660156 C 20.882812 25.660156 20.542969 26 20.542969 26.414062 C 20.542969 26.832031 20.882812 27.171875 21.296875 27.171875 L 24.03125 27.171875 L 24.03125 33.058594 L 21.296875 33.058594 C 20.882812 33.058594 20.542969 33.394531 20.542969 33.8125 C 20.542969 34.230469 20.882812 34.570312 21.296875 34.570312 L 24.03125 34.570312 L 24.03125 40.460938 L 21.296875 40.460938 C 20.882812 40.460938 20.542969 40.800781 20.542969 41.21875 C 20.542969 41.636719 20.882812 41.972656 21.296875 41.972656 L 24.03125 41.972656 L 24.03125 47.898438 L 21.296875 47.898438 C 20.882812 47.898438 20.542969 48.238281 20.542969 48.65625 C 20.542969 49.074219 20.882812 49.410156 21.296875 49.410156 L 24.03125 49.410156 L 24.03125 51.621094 C 24.03125 54.222656 26.148438 56.339844 28.75 56.339844 L 49.730469 56.339844 C 52.332031 56.339844 54.449219 54.222656 54.449219 51.621094 L 54.449219 23.371094 C 54.449219 20.769531 52.332031 18.652344 49.730469 18.652344 " fill-opacity="1" fill-rule="nonzero"/></g><g clip-path="url(#cc0cb109dd)"><path fill="#ffffff" d="M 25.5625 49.429688 L 25.5625 51.621094 C 25.5625 53.378906 26.992188 54.8125 28.75 54.8125 L 49.730469 54.8125 C 51.488281 54.8125 52.921875 53.378906 52.921875 51.621094 L 52.921875 23.371094 C 52.921875 21.613281 51.488281 20.179688 49.730469 20.179688 L 28.75 20.179688 C 26.992188 20.179688 25.5625 21.613281 25.5625 23.371094 L 25.5625 25.644531 L 28.277344 25.644531 C 28.703125 25.644531 29.050781 25.988281 29.050781 26.414062 C 29.050781 26.84375 28.703125 27.1875 28.277344 27.1875 L 25.5625 27.1875 L 25.5625 33.039062 L 28.277344 33.039062 C 28.703125 33.039062 29.050781 33.386719 29.050781 33.8125 C 29.050781 34.238281 28.703125 34.585938 28.277344 34.585938 L 25.5625 34.585938 L 25.5625 40.445312 L 28.277344 40.445312 C 28.703125 40.445312 29.050781 40.792969 29.050781 41.21875 C 29.050781 41.644531 28.703125 41.992188 28.277344 41.992188 L 25.5625 41.992188 L 25.5625 47.882812 L 28.277344 47.882812 C 28.703125 47.882812 29.050781 48.230469 29.050781 48.65625 C 29.050781 49.082031 28.703125 49.429688 28.277344 49.429688 Z M 49.730469 54.84375 L 28.75 54.84375 C 26.972656 54.84375 25.527344 53.398438 25.527344 51.621094 L 25.527344 49.394531 L 28.277344 49.394531 C 28.683594 49.394531 29.015625 49.0625 29.015625 48.65625 C 29.015625 48.25 28.683594 47.917969 28.277344 47.917969 L 25.527344 47.917969 L 25.527344 41.957031 L 28.277344 41.957031 C 28.683594 41.957031 29.015625 41.625 29.015625 41.21875 C 29.015625 40.8125 28.683594 40.480469 28.277344 40.480469 L 25.527344 40.480469 L 25.527344 34.550781 L 28.277344 34.550781 C 28.683594 34.550781 29.015625 34.222656 29.015625 33.8125 C 29.015625 33.40625 28.683594 33.074219 28.277344 33.074219 L 25.527344 33.074219 L 25.527344 27.15625 L 28.277344 27.15625 C 28.683594 27.15625 29.015625 26.824219 29.015625 26.414062 C 29.015625 26.007812 28.683594 25.675781 28.277344 25.675781 L 25.527344 25.675781 L 25.527344 23.371094 C 25.527344 21.59375 26.972656 20.148438 28.75 20.148438 L 49.730469 20.148438 C 51.507812 20.148438 52.957031 21.59375 52.957031 23.371094 L 52.957031 51.621094 C 52.957031 53.398438 51.507812 54.84375 49.730469 54.84375 Z M 21.296875 47.917969 C 20.890625 47.917969 20.558594 48.25 20.558594 48.65625 C 20.558594 49.0625 20.890625 49.394531 21.296875 49.394531 L 24.050781 49.394531 L 24.050781 51.621094 C 24.050781 54.214844 26.160156 56.324219 28.75 56.324219 L 49.730469 56.324219 C 52.324219 56.324219 54.433594 54.214844 54.433594 51.621094 L 54.433594 23.371094 C 54.433594 20.777344 52.324219 18.667969 49.730469 18.667969 L 28.75 18.667969 C 26.160156 18.667969 24.050781 20.777344 24.050781 23.371094 L 24.050781 25.675781 L 21.296875 25.675781 C 20.890625 25.675781 20.558594 26.007812 20.558594 26.414062 C 20.558594 26.824219 20.890625 27.15625 21.296875 27.15625 L 24.050781 27.15625 L 24.050781 33.074219 L 21.296875 33.074219 C 20.890625 33.074219 20.558594 33.40625 20.558594 33.8125 C 20.558594 34.222656 20.890625 34.550781 21.296875 34.550781 L 24.050781 34.550781 L 24.050781 40.480469 L 21.296875 40.480469 C 20.890625 40.480469 20.558594 40.8125 20.558594 41.21875 C 20.558594 41.625 20.890625 41.957031 21.296875 41.957031 L 24.050781 41.957031 L 24.050781 47.917969 Z M 49.730469 56.355469 L 28.75 56.355469 C 26.140625 56.355469 24.015625 54.230469 24.015625 51.621094 L 24.015625 49.429688 L 21.296875 49.429688 C 20.871094 49.429688 20.527344 49.082031 20.527344 48.65625 C 20.527344 48.230469 20.871094 47.882812 21.296875 47.882812 L 24.015625 47.882812 L 24.015625 41.992188 L 21.296875 41.992188 C 20.871094 41.992188 20.527344 41.644531 20.527344 41.21875 C 20.527344 40.792969 20.871094 40.445312 21.296875 40.445312 L 24.015625 40.445312 L 24.015625 34.585938 L 21.296875 34.585938 C 20.871094 34.585938 20.527344 34.238281 20.527344 33.8125 C 20.527344 33.386719 20.871094 33.039062 21.296875 33.039062 L 24.015625 33.039062 L 24.015625 27.1875 L 21.296875 27.1875 C 20.871094 27.1875 20.527344 26.84375 20.527344 26.414062 C 20.527344 25.988281 20.871094 25.644531 21.296875 25.644531 L 24.015625 25.644531 L 24.015625 23.371094 C 24.015625 20.761719 26.140625 18.636719 28.75 18.636719 L 49.730469 18.636719 C 52.34375 18.636719 54.46875 20.761719 54.46875 23.371094 L 54.46875 51.621094 C 54.46875 54.230469 52.34375 56.355469 49.730469 56.355469 " fill-opacity="1" fill-rule="nonzero"/></g></svg>