<svg xmlns="http://www.w3.org/2000/svg" xmlns:xlink="http://www.w3.org/1999/xlink" width="100" zoomAndPan="magnify" viewBox="0 0 75 74.999997" height="100" preserveAspectRatio="xMidYMid meet" version="1.0"><defs><clipPath id="fd7f8166e6"><path d="M 18.4375 19.703125 L 55 19.703125 L 55 54.953125 L 18.4375 54.953125 Z M 18.4375 19.703125 " clip-rule="nonzero"/></clipPath><clipPath id="0852d39ce5"><path d="M 26 22 L 56.6875 22 L 56.6875 47 L 26 47 Z M 26 22 " clip-rule="nonzero"/></clipPath></defs><g clip-path="url(#fd7f8166e6)"><path fill="#ffffff" d="M 51.867188 37.496094 C 51.867188 46.109375 44.863281 53.113281 36.25 53.113281 C 27.636719 53.113281 20.632812 46.109375 20.632812 37.496094 C 20.632812 28.882812 27.636719 21.878906 36.25 21.878906 C 40.261719 21.878906 43.925781 23.398438 46.695312 25.894531 L 48.234375 24.355469 C 45.070312 21.464844 40.863281 19.703125 36.25 19.703125 C 26.4375 19.703125 18.453125 27.683594 18.453125 37.496094 C 18.453125 47.308594 26.4375 55.292969 36.25 55.292969 C 46.0625 55.292969 54.042969 47.308594 54.042969 37.496094 C 54.042969 35.753906 53.789062 34.066406 53.320312 32.472656 L 51.53125 34.265625 C 51.75 35.308594 51.867188 36.390625 51.867188 37.496094 " fill-opacity="1" fill-rule="nonzero"/></g><g clip-path="url(#0852d39ce5)"><path fill="#ffffff" d="M 56.082031 24.789062 L 54.402344 23.109375 C 54.171875 22.878906 53.871094 22.765625 53.570312 22.765625 C 53.269531 22.765625 52.96875 22.878906 52.742188 23.109375 L 35.714844 40.136719 L 29.847656 34.269531 C 29.617188 34.042969 29.316406 33.925781 29.019531 33.925781 C 28.71875 33.925781 28.417969 34.042969 28.1875 34.269531 L 26.507812 35.953125 C 26.046875 36.410156 26.046875 37.15625 26.507812 37.613281 L 34.882812 45.992188 C 35.113281 46.21875 35.414062 46.335938 35.714844 46.335938 C 36.015625 46.335938 36.3125 46.21875 36.542969 45.992188 L 56.082031 26.449219 C 56.542969 25.992188 56.542969 25.25 56.082031 24.789062 " fill-opacity="1" fill-rule="nonzero"/></g></svg>