<svg xmlns="http://www.w3.org/2000/svg" xmlns:xlink="http://www.w3.org/1999/xlink" width="100" zoomAndPan="magnify" viewBox="0 0 75 74.999997" height="100" preserveAspectRatio="xMidYMid meet" version="1.0"><defs><clipPath id="179a1906cc"><path d="M 18.273438 42.429688 L 32.605469 42.429688 L 32.605469 56.523438 L 18.273438 56.523438 Z M 18.273438 42.429688 " clip-rule="nonzero"/></clipPath></defs><g clip-path="url(#179a1906cc)"><path fill="#ffffff" d="M 29.542969 43.300781 C 28.828125 42.589844 27.679688 42.589844 27.007812 43.300781 L 18.804688 51.5 C 18.09375 52.214844 18.09375 53.363281 18.804688 54.035156 L 20.988281 56.214844 C 21.34375 56.574219 21.777344 56.730469 22.253906 56.730469 C 22.730469 56.730469 23.207031 56.535156 23.523438 56.214844 L 31.722656 48.015625 C 32.4375 47.300781 32.4375 46.152344 31.722656 45.480469 L 29.542969 43.300781 " fill-opacity="1" fill-rule="nonzero"/></g><path fill="#ffffff" d="M 49.472656 40.609375 C 47.449219 42.628906 44.796875 43.738281 41.945312 43.738281 C 39.09375 43.738281 36.4375 42.628906 34.414062 40.609375 C 30.253906 36.449219 30.253906 29.714844 34.414062 25.59375 C 38.574219 21.433594 45.351562 21.433594 49.472656 25.554688 C 53.628906 29.714844 53.628906 36.449219 49.472656 40.605469 Z M 51.449219 23.613281 C 46.222656 18.34375 37.703125 18.34375 32.476562 23.613281 C 27.800781 28.285156 27.246094 35.734375 31.128906 41.042969 L 30.695312 41.476562 C 30.292969 41.875 30.292969 42.546875 30.695312 42.945312 L 32.121094 44.371094 C 32.515625 44.765625 33.191406 44.765625 33.585938 44.371094 L 34.019531 43.933594 C 36.359375 45.675781 39.167969 46.511719 41.945312 46.511719 C 45.390625 46.511719 48.875 45.203125 51.449219 42.589844 C 56.679688 37.316406 56.679688 28.839844 51.449219 23.613281 " fill-opacity="1" fill-rule="nonzero"/></svg>